<?xml version="1.0" standalone="no"?>
<!DOCTYPE svg PUBLIC "-//W3C//DTD SVG 20010904//EN"
 "http://www.w3.org/TR/2001/REC-SVG-20010904/DTD/svg10.dtd">
<svg version="1.0" xmlns="http://www.w3.org/2000/svg"
 width="500.000000pt" height="500.000000pt" viewBox="0 0 500.000000 500.000000"
 preserveAspectRatio="xMidYMid meet">
<metadata>
Created by potrace 1.16, written by Peter Selinger 2001-2019
</metadata>
<g transform="translate(0.000000,500.000000) scale(0.100000,-0.100000)"
fill="#000000" stroke="none">
<path d="M2716 2761 c-60 -9 -101 -21 -104 -29 -3 -9 3 -11 20 -7 37 9 78 -10
78 -37 0 -13 -11 -61 -25 -108 -13 -47 -41 -141 -60 -210 -52 -180 -78 -269
-118 -405 -19 -66 -38 -135 -42 -153 l-7 -33 48 3 48 3 28 88 c65 210 278 478
370 465 40 -5 30 -78 -40 -292 -62 -188 -73 -251 -50 -274 20 -20 63 -13 104
16 47 34 118 119 106 126 -5 3 -25 -15 -46 -39 -38 -46 -60 -56 -69 -31 -3 8
11 65 32 128 114 338 120 370 75 415 -23 23 -31 25 -76 20 -82 -10 -137 -55
-265 -215 -37 -45 -68 -80 -71 -78 -4 4 26 109 94 332 19 61 34 116 34 121 0
6 14 54 30 108 17 54 30 99 30 101 0 5 -12 4 -124 -15z"/>
<path d="M4246 2761 c-63 -10 -101 -21 -104 -30 -3 -9 1 -11 16 -7 29 10 70
-3 77 -23 3 -10 -4 -51 -15 -92 -36 -138 -69 -252 -75 -257 -3 -3 -19 8 -36
24 -28 27 -36 29 -102 29 -65 0 -79 -4 -139 -38 -99 -55 -185 -146 -238 -251
-42 -82 -44 -92 -45 -169 0 -95 14 -130 64 -164 59 -40 142 -25 224 39 20 16
66 63 102 104 68 79 76 77 50 -10 -18 -59 -19 -128 -3 -144 30 -30 89 -2 145
69 18 23 33 49 33 58 -1 17 -10 7 -54 -54 -16 -23 -20 -25 -32 -13 -12 12 -10
27 12 103 14 50 39 137 55 195 30 105 75 256 125 425 49 166 63 225 51 224 -7
-1 -57 -9 -111 -18z m-172 -406 c23 -21 26 -31 26 -92 0 -58 -6 -80 -34 -140
-60 -126 -165 -251 -233 -280 -149 -62 -190 126 -73 331 49 85 126 171 173
191 52 23 110 19 141 -10z"/>
<path d="M910 2721 c0 -4 19 -11 42 -14 32 -4 51 -15 75 -40 l31 -35 -23 -83
c-12 -46 -32 -115 -43 -154 -11 -38 -39 -135 -62 -215 -23 -80 -53 -183 -67
-229 -30 -96 -70 -151 -112 -152 -14 0 -35 -4 -46 -9 -12 -5 38 -9 133 -9 100
-1 151 2 147 9 -3 6 -15 10 -26 10 -11 0 -29 5 -40 10 -29 16 -25 95 12 220
38 128 76 258 119 408 18 61 35 112 39 112 3 0 35 -73 70 -163 35 -89 79 -198
97 -242 18 -44 59 -147 91 -228 32 -82 62 -150 67 -150 10 -2 17 18 76 223 23
80 54 190 70 245 16 55 43 150 60 210 52 182 59 201 88 228 16 15 48 33 73 41
42 13 37 14 -108 15 -84 1 -153 -3 -153 -7 0 -4 14 -9 32 -10 18 -2 40 -10 50
-19 32 -29 26 -65 -67 -378 -26 -88 -56 -195 -67 -237 -11 -43 -25 -78 -29
-78 -10 0 -12 4 -63 135 -74 193 -169 433 -197 499 -16 38 -29 75 -29 82 0 11
-25 14 -120 14 -66 0 -120 -4 -120 -9z"/>
<path d="M3370 2394 c-52 -7 -98 -13 -102 -13 -5 -1 -8 -5 -8 -10 0 -6 21 -11
48 -13 l47 -3 -2 -55 c-2 -30 -16 -95 -32 -145 -52 -160 -92 -294 -98 -329 -4
-27 -1 -36 18 -50 34 -24 71 -20 115 12 55 40 116 111 108 124 -5 7 -22 -6
-47 -35 -48 -58 -77 -62 -77 -12 0 19 6 54 14 77 25 74 135 449 136 461 0 8 1
8 -120 -9z"/>
<path d="M2032 2368 c-151 -77 -285 -271 -298 -431 -6 -74 13 -119 65 -154 76
-51 191 -11 307 105 54 54 66 62 61 42 -16 -66 -19 -140 -7 -155 16 -19 53
-19 89 -1 34 18 101 91 101 111 0 25 -14 16 -40 -25 -23 -39 -43 -50 -55 -31
-6 10 22 129 55 236 44 143 92 326 88 331 -3 3 -27 0 -52 -7 -40 -10 -48 -16
-53 -40 -5 -26 -23 -42 -23 -20 0 5 -14 23 -31 40 -27 27 -37 31 -88 31 -46 0
-71 -7 -119 -32z m192 -31 c44 -60 19 -214 -52 -326 -91 -142 -212 -210 -289
-162 -75 47 -48 211 61 375 69 102 134 147 210 143 41 -2 53 -7 70 -30z"/>
</g>
</svg>
