<?xml version="1.0" standalone="no"?>
<!DOCTYPE svg PUBLIC "-//W3C//DTD SVG 20010904//EN"
 "http://www.w3.org/TR/2001/REC-SVG-20010904/DTD/svg10.dtd">
<svg version="1.0" xmlns="http://www.w3.org/2000/svg"
 width="200.000000pt" height="200.000000pt" viewBox="0 0 200.000000 200.000000"
 preserveAspectRatio="xMidYMid meet">
<metadata>
Created by potrace 1.10, written by Peter Selinger 2001-2011
</metadata>
<g transform="translate(0.000000,200.000000) scale(0.100000,-0.100000)"
fill="#000000" stroke="none">
<path d="M1035 1070 c-4 -6 -3 -16 3 -22 6 -6 12 -6 17 2 4 6 3 16 -3 22 -6 6
-12 6 -17 -2z"/>
<path d="M670 995 c0 -43 4 -75 10 -75 6 0 10 20 10 43 0 30 6 49 18 60 28 26
32 21 32 -37 0 -56 13 -77 33 -57 8 8 8 11 -1 11 -8 0 -12 20 -12 59 0 33 -4
62 -9 65 -5 3 -20 -4 -35 -15 l-26 -20 0 20 c0 12 -4 21 -10 21 -6 0 -10 -32
-10 -75z"/>
<path d="M920 995 c0 -43 4 -75 10 -75 6 0 10 20 10 44 0 36 3 44 18 42 11 -2
18 -14 20 -37 4 -41 17 -58 34 -41 9 9 9 12 1 12 -7 0 -13 17 -15 38 -3 32 -7
37 -30 40 -22 3 -28 9 -28 28 0 13 -4 24 -10 24 -6 0 -10 -32 -10 -75z"/>
<path d="M1150 1046 c0 -19 -6 -25 -27 -28 -26 -3 -28 -6 -28 -48 l0 -45 42
-2 c24 -1 45 2 48 8 4 5 1 9 -4 9 -7 0 -11 26 -11 65 0 37 -4 65 -10 65 -5 0
-10 -11 -10 -24z m0 -71 c0 -28 -4 -35 -20 -35 -15 0 -20 7 -20 28 0 32 7 42
27 42 8 0 13 -12 13 -35z"/>
<path d="M804 1006 c-3 -8 -4 -29 -2 -48 3 -32 5 -33 46 -34 23 0 45 3 48 8 3
4 0 8 -5 8 -6 0 -11 18 -11 40 0 39 -1 40 -35 40 -21 0 -38 -6 -41 -14z m56
-33 c0 -26 -4 -33 -20 -33 -15 0 -20 7 -20 28 0 33 4 39 25 39 10 0 15 -11 15
-34z"/>
<path d="M1030 981 c0 -43 17 -65 40 -51 13 8 13 10 0 10 -12 0 -15 9 -12 40
3 32 1 40 -12 40 -12 0 -16 -10 -16 -39z"/>
</g>
</svg>
